<svg id="Capa_1" enable-background="new 0 0 512 512" height="512" viewBox="0 0 512 512" width="512" xmlns="http://www.w3.org/2000/svg"><g><path d="m497 332h-106l-15 30-15-30h-90l-15 30-15-30h-90l-15 30-15-30h-106c-8.401 0-15 6.599-15 15v150c0 8.399 6.599 15 15 15h106l15-30 15 30h90l15-30 15 30h90l15-30 15 30h106c8.401 0 15-6.601 15-15v-150c0-8.401-6.599-15-15-15z" fill="#66b3ff"/><path d="m271 512h90l15-30 15 30h106c8.401 0 15-6.601 15-15v-150c0-8.401-6.599-15-15-15h-106l-15 30-15-30h-90l-15 30v120z" fill="#4d88ff"/><g><g><g><g><path d="m211 242h-30c-16.569 0-30-13.431-30-30v-135c0-8.284 6.716-15 15-15h60c8.284 0 15 6.716 15 15v135c0 16.569-13.431 30-30 30z" fill="#fed843"/></g></g></g></g><g><path d="m451 242h-30c-16.569 0-30-13.431-30-30v-75c0-8.284 6.716-15 15-15h60c8.284 0 15 6.716 15 15v75c0 16.569-13.431 30-30 30z" fill="#fabe2c"/></g><g><path d="m331 242h-30c-16.569 0-30-13.431-30-30v-197c0-8.284 6.716-15 15-15h60c8.284 0 15 6.716 15 15v197c0 16.569-13.431 30-30 30z" fill="#fabe2c"/></g><g><g><g><g><path d="m91 242h-30c-16.569 0-30-13.431-30-30v-45c0-8.284 6.716-15 15-15h60c8.284 0 15 6.716 15 15v45c0 16.569-13.431 30-30 30z" fill="#fed843"/></g></g></g></g><g id="Aqualizer_2_"><g><g><path d="m361 287h-90v-75h90z" fill="#ff9100"/></g></g><g><path d="m241 287h-90v-75h90z" fill="#fabe2c"/></g><g><path d="m121 287h-90v-75h90z" fill="#fabe2c"/></g><g><g><path d="m481 287h-90v-75h90z" fill="#ff9100"/></g></g><g><path d="m121 332v90 90h30v-90-90z" fill="#475259"/><path d="m166 392h-60c-8.291 0-15 6.709-15 15s6.709 15 15 15h60c8.291 0 15-6.709 15-15s-6.709-15-15-15z" fill="#ebf2f2"/></g></g><g><path d="m497 302h-482c-8.291 0-15-6.709-15-15s6.709-15 15-15h482c8.291 0 15 6.709 15 15s-6.709 15-15 15z" fill="#475259"/></g><path d="m497 272h-241v30h241c8.291 0 15-6.709 15-15s-6.709-15-15-15z" fill="#333a40"/></g><path d="m241 332v90 90h30v-90-90z" fill="#475259"/><path d="m256 332v180h15v-90-90z" fill="#333a40"/><path d="m286 422h-60c-8.291 0-15 6.709-15 15s6.709 15 15 15h60c8.291 0 15-6.709 15-15s-6.709-15-15-15z" fill="#ebf2f2"/><path d="m256 452h30c8.291 0 15-6.709 15-15s-6.709-15-15-15h-30z" fill="#cee2e6"/><path d="m361 332v90 90h30v-90-90z" fill="#333a40"/><path d="m406 392h-60c-8.291 0-15 6.709-15 15s6.709 15 15 15h60c8.291 0 15-6.709 15-15s-6.709-15-15-15z" fill="#cee2e6"/></svg>