<svg id="Capa_1" enable-background="new 0 0 497 497" height="512" viewBox="0 0 497 497" width="512" xmlns="http://www.w3.org/2000/svg"><g><path d="m497 248.5c0-137.243-111.257-248.5-248.5-248.5-13.382 0-26.466 2.38-39.183 4.417-117.711 18.856-204 120.262-204 244.123 0 110.264 67.601 201.73 167.009 234.225 22.135 7.236 44.537 13.431 68.92 14.13 2.41.069 4.828.104 7.254.104 137.243.001 248.5-111.256 248.5-248.499z" fill="#ffd163"/><path d="m257 496.85c-2.82.1-5.66.15-8.5.15-137.24 0-248.5-111.26-248.5-248.5s111.26-248.5 248.5-248.5c2.84 0 5.68.05 8.5.15-133.3 4.47-240 113.95-240 248.35s106.7 243.88 240 248.35z" fill="#ffb65f"/><path d="m462 248.5c0-115.848-92.269-210.145-207.326-213.412-2.051-.058-4.109.307-6.174.307-57.584 0-108.451 23.434-146.853 60.399-40.232 38.727-64.294 92.418-64.294 152.747 0 81.394 45.77 149.226 112.073 185.235 29.748 16.155 62.556 28.224 99.074 28.224 117.913 0 213.5-95.587 213.5-213.5z" fill="#ffb65f"/><path d="m258.5 461.76c-3.31.16-6.65.24-10 .24-117.91 0-213.5-95.59-213.5-213.5s95.59-213.5 213.5-213.5c3.35 0 6.69.08 10 .24-113.27 5.21-203.5 98.7-203.5 213.26s90.23 208.05 203.5 213.26z" fill="#ff9350"/><g><path d="m213.145 318.638c0-18.658-15.125-33.783-33.783-33.783-4.505 0-8.804.882-12.733 2.482-12.346 5.028-18.303 18.39-18.303 32.543 0 18.658 12.379 29.785 31.037 29.785 11.481 0 21.624-2.972 27.728-11.725 3.816-5.471 6.054-12.125 6.054-19.302z" fill="#f8f7f7"/><path d="m207.09 337.94c-6.1 8.75-16.25 14.48-27.73 14.48-18.66 0-33.78-15.12-33.78-33.78 0-14.16 8.7-26.27 21.05-31.3-3.81 5.47-6.05 12.12-6.05 19.3 0 18.66 15.12 33.78 33.78 33.78 4.5 0 8.8-.88 12.73-2.48z" fill="#e8e8e8"/><g><path d="m286.072 361c-2.051 0-4.042-.256-5.943-.737-10.453-2.647-16.427-14.734-16.427-26.01 0-55.587-44.816-99.252-100.404-99.252-11.494 0-23.279-6.978-25.707-17.738-.387-1.716-.592-3.501-.592-5.334 0-13.327 10.803-24.13 24.13-24.13 82.198 0 149.072 66.873 149.072 149.072.002 13.325-10.801 24.129-24.129 24.129z" fill="#f8f7f7"/></g><g><path d="m280.94 336.87c0 1.2-.48 11.71-.81 23.39-10.45-2.64-18.19-12.11-18.19-23.39 0-55.59-45.22-100.81-100.81-100.81-11.5 0-21.11-8.04-23.53-18.8 12.12-.03 22.42-.2 23.53-.2 66.07 0 119.81 53.75 119.81 119.81z" fill="#e8e8e8"/></g><g><path d="m371.87 361c-1.666 0-3.292-.169-4.863-.49-10.996-2.25-17.763-13.386-17.763-25.046 0-102.896-81.947-187.046-184.844-187.046-11.595 0-24.549-6.335-26.87-17.237-.347-1.629-.529-3.318-.529-5.05 0-13.327 10.803-24.13 24.13-24.13 62.736 0 121.717 24.43 166.078 68.792s68.791 103.341 68.791 166.077c0 13.326-10.803 24.13-24.13 24.13z" fill="#f8f7f7"/></g><g><path d="m366.99 360.51c-10.99-2.26-19.25-11.98-19.25-23.64 0-102.9-83.71-186.61-186.61-186.61-11.6 0-21.28-8.18-23.6-19.08 11.78.14 22.39.08 23.6.08 113.37 0 205.61 92.24 205.61 205.61 0 1.25 0 12.03.25 23.64z" fill="#e8e8e8"/></g></g></g></svg>