<svg height="512pt" viewBox="-41 0 512 512" width="512pt" xmlns="http://www.w3.org/2000/svg"><path d="m328.097656 66.632812h30.710938v237.175782h-30.710938zm0 0" fill="#57565c"/><path d="m70.765625 66.632812h30.714844v237.175782h-30.714844zm0 0" fill="#57565c"/><path d="m70.765625 66.632812h15.355469v237.175782h-15.355469zm0 0" fill="#444346"/><path d="m328.097656 66.632812h15.355469v237.175782h-15.355469zm0 0" fill="#444346"/><path d="m387.703125 7.734375c-2.910156-4.800781-8.117187-7.734375-13.730469-7.734375h-318.367187c-5.617188 0-10.824219 2.933594-13.734375 7.734375l-41.527344 68.539063h428.886719zm0 0" fill="#ffeb99"/><path d="m55.605469 0h58.246093l-27.730468 76.273438h-85.777344l41.527344-68.539063c2.910156-4.800781 8.117187-7.734375 13.734375-7.734375zm0 0" fill="#f46262"/><path d="m86.316406 0h-30.710937c-5.617188 0-10.824219 2.933594-13.734375 7.734375l-41.527344 68.539063h30.714844l41.527344-68.539063c2.910156-4.800781 8.117187-7.734375 13.730468-7.734375zm0 0" fill="#d65b5b"/><path d="m181.140625 0h67.292969l9.242187 76.273438h-85.777343zm0 0" fill="#f46262"/><path d="m181.140625 0-9.242187 76.273438h30.714843l9.242188-76.273438zm0 0" fill="#d65b5b"/><path d="m315.722656 0h58.25c5.613282 0 10.820313 2.933594 13.730469 7.734375l41.527344 68.539063h-85.777344zm0 0" fill="#f46262"/><path d="m315.722656 0 27.730469 76.273438h30.710937l-27.726562-76.273438zm0 0" fill="#d65b5b"/><path d="m.34375 76.273438h85.777344v44.472656c0 23.6875-19.199219 42.890625-42.886719 42.890625s-42.886719-19.203125-42.886719-42.890625v-44.472656zm0 0" fill="#d65b5b"/><path d="m31.058594 120.746094v-44.472656h-30.714844v44.472656c0 23.6875 19.203125 42.890625 42.890625 42.890625 5.410156 0 10.585937-1.015625 15.355469-2.84375-16.097656-6.179688-27.53125-21.773438-27.53125-40.046875zm0 0" fill="#bf4c4c"/><path d="m86.121094 76.273438h85.777344v44.472656c0 23.6875-19.203126 42.890625-42.886719 42.890625-23.6875 0-42.890625-19.203125-42.890625-42.890625zm0 0" fill="#ffde55"/><path d="m116.835938 120.746094v-44.472656h-30.714844v44.472656c0 23.6875 19.203125 42.890625 42.890625 42.890625 5.410156 0 10.585937-1.015625 15.355469-2.84375-16.097657-6.179688-27.53125-21.773438-27.53125-40.046875zm0 0" fill="#ffcd00"/><path d="m171.898438 76.273438h85.777343v44.472656c0 23.6875-19.203125 42.890625-42.886719 42.890625-23.6875 0-42.890624-19.203125-42.890624-42.890625zm0 0" fill="#d65b5b"/><path d="m202.613281 120.746094v-44.472656h-30.714843v44.472656c0 23.6875 19.203124 42.890625 42.886718 42.890625 5.414063 0 10.589844-1.015625 15.359375-2.84375-16.097656-6.179688-27.53125-21.773438-27.53125-40.046875zm0 0" fill="#bf4c4c"/><path d="m257.675781 76.273438h85.777344v44.472656c0 23.6875-19.203125 42.890625-42.886719 42.890625-23.6875 0-42.890625-19.203125-42.890625-42.890625zm0 0" fill="#ffde55"/><path d="m288.390625 120.746094v-44.472656h-30.714844v44.472656c0 23.6875 19.203125 42.890625 42.886719 42.890625 5.414062 0 10.589844-1.015625 15.359375-2.84375-16.101563-6.179688-27.53125-21.773438-27.53125-40.046875zm0 0" fill="#ffcd00"/><path d="m343.453125 76.273438h85.777344v44.472656c0 23.6875-19.203125 42.890625-42.886719 42.890625-23.6875 0-42.890625-19.203125-42.890625-42.890625zm0 0" fill="#d65b5b"/><path d="m374.164062 120.746094v-44.472656h-30.710937v44.472656c0 23.6875 19.199219 42.890625 42.886719 42.890625 5.414062 0 10.589844-1.015625 15.355468-2.84375-16.097656-6.179688-27.53125-21.773438-27.53125-40.046875zm0 0" fill="#bf4c4c"/><path d="m18.734375 303.296875h392.109375v183.109375h-392.109375zm0 0" fill="#bdebff"/><path d="m18.734375 344.855469h63.800781l98.539063 80.816406c9.433593 7.730469 21.34375 11.992187 33.542969 11.992187 12.195312 0 24.109374-4.261718 33.539062-11.992187l98.542969-80.816406h64.144531v-41.558594h-392.109375zm0 0" fill="#92d8ff"/><path d="m18.734375 303.296875h51.507813v183.109375h-51.507813zm0 0" fill="#92d8ff"/><path d="m419.609375 329.402344h-409.988281c-5.3125 0-9.621094-4.308594-9.621094-9.621094v-31.945312c0-5.3125 4.308594-9.621094 9.621094-9.621094h409.984375c5.316406 0 9.625 4.308594 9.625 9.621094v31.945312c0 5.3125-4.308594 9.621094-9.621094 9.621094zm0 0" fill="#d7f3ff"/><path d="m419.609375 512h-409.988281c-5.3125 0-9.621094-4.308594-9.621094-9.621094v-31.945312c0-5.316406 4.308594-9.621094 9.621094-9.621094h409.984375c5.316406 0 9.625 4.304688 9.625 9.621094v31.945312c0 5.3125-4.308594 9.621094-9.621094 9.621094zm0 0" fill="#d7f3ff"/><path d="m51.191406 319.78125v-31.945312c0-5.3125 4.304688-9.621094 9.621094-9.621094h-51.191406c-5.3125 0-9.621094 4.308594-9.621094 9.621094v31.945312c0 5.3125 4.308594 9.621094 9.621094 9.621094h51.191406c-5.316406 0-9.621094-4.308594-9.621094-9.621094zm0 0" fill="#bdebff"/><path d="m51.191406 502.378906v-31.945312c0-5.316406 4.304688-9.621094 9.621094-9.621094h-51.191406c-5.3125 0-9.621094 4.304688-9.621094 9.621094v31.945312c0 5.3125 4.308594 9.621094 9.621094 9.621094h51.191406c-5.316406 0-9.621094-4.308594-9.621094-9.621094zm0 0" fill="#bdebff"/><path d="m113.851562 0-27.730468 76.273438h30.714844l27.726562-76.273438zm0 0" fill="#ffde55"/><path d="m248.433594 0 9.242187 76.273438h30.714844l-9.242187-76.273438zm0 0" fill="#ffde55"/><path d="m214.613281 278.214844h-188.972656l165.234375 135.507812c13.800781 11.320313 33.679688 11.320313 47.480469 0l165.234375-135.507812zm0 0" fill="#f46262"/><path d="m77.152344 278.214844h-51.511719l165.234375 135.507812c13.800781 11.320313 33.675781 11.320313 47.480469 0l2.015625-1.652344zm0 0" fill="#d65b5b"/></svg>